<svg width="84" height="84" viewBox="0 0 84 84" fill="none" xmlns="http://www.w3.org/2000/svg">
<rect width="84" height="84" rx="10" fill="#59D7F8" fill-opacity="0.15"/>
<path opacity="0.9" d="M26.1105 19.4998H54.8898C55.7645 19.5062 56.6294 19.6848 57.435 20.0255C58.2406 20.3661 58.9713 20.8621 59.5852 21.4852C60.1992 22.1082 60.6844 22.8461 61.0131 23.6566C61.3419 24.4672 61.5078 25.3346 61.5013 26.2093V57.7909C61.5138 59.5571 60.8243 61.256 59.5845 62.5139C58.3447 63.7719 56.656 64.486 54.8898 64.4993H26.1105C24.3444 64.486 22.6559 63.7718 21.4163 62.5138C20.1767 61.2558 19.4874 59.557 19.5002 57.7909V26.2093C19.4877 24.4435 20.1769 22.745 21.4162 21.4871C22.6555 20.2292 24.3436 19.5148 26.1093 19.5009L26.1105 19.4998Z" fill="#57D6F8"/>
<path d="M56.3094 48.8752H46.5712C46.3431 48.8752 46.1582 49.0601 46.1582 49.2882V49.9626C46.1582 50.1907 46.3431 50.3756 46.5712 50.3756H56.3094C56.5375 50.3756 56.7224 50.1907 56.7224 49.9626V49.2882C56.7224 49.0601 56.5375 48.8752 56.3094 48.8752Z" fill="white"/>
<path opacity="0.98" d="M54.9979 22.4993H25.998C24.0651 22.4993 22.498 24.0663 22.498 25.9993V57.9998C22.498 59.9328 24.0651 61.4998 25.998 61.4998H54.9979C56.9309 61.4998 58.4979 59.9328 58.4979 57.9998V25.9993C58.4979 24.0663 56.9309 22.4993 54.9979 22.4993Z" fill="white"/>
<path d="M54.656 26.3411H48.8005C48.1561 26.3411 47.6338 26.8634 47.6338 27.5077V34.7551C47.6338 35.3994 48.1561 35.9217 48.8005 35.9217H54.656C55.3003 35.9217 55.8226 35.3994 55.8226 34.7551V27.5077C55.8226 26.8634 55.3003 26.3411 54.656 26.3411Z" fill="#65D2F0"/>
<path opacity="0.95" d="M43.226 26.3411H26.8005C26.1561 26.3411 25.6338 26.8634 25.6338 27.5077V29.0279C25.6338 29.6722 26.1561 30.1946 26.8005 30.1946H43.226C43.8703 30.1946 44.3926 29.6722 44.3926 29.0279V27.5077C44.3926 26.8634 43.8703 26.3411 43.226 26.3411Z" fill="#67D2F0"/>
<path opacity="0.95" d="M39.3363 32.9548H26.7293C26.1243 32.9548 25.6338 33.4453 25.6338 34.0503V34.6768C25.6338 35.2819 26.1243 35.7723 26.7293 35.7723H39.3363C39.9413 35.7723 40.4318 35.2819 40.4318 34.6768V34.0503C40.4318 33.4453 39.9413 32.9548 39.3363 32.9548Z" fill="#B3E8F7"/>
<path opacity="0.95" d="M42.1551 45.4336H26.7283C26.1233 45.4336 25.6328 45.9241 25.6328 46.5291V47.1556C25.6328 47.7606 26.1233 48.2511 26.7283 48.2511H42.1551C42.7602 48.2511 43.2506 47.7606 43.2506 47.1556V46.5291C43.2506 45.9241 42.7602 45.4336 42.1551 45.4336Z" fill="#F5F6F7"/>
<path opacity="0.95" d="M37.9295 51.5574H26.7283C26.1233 51.5574 25.6328 52.0478 25.6328 52.6529V53.2794C25.6328 53.8844 26.1233 54.3749 26.7283 54.3749H37.9295C38.5345 54.3749 39.025 53.8844 39.025 53.2794V52.6529C39.025 52.0478 38.5345 51.5574 37.9295 51.5574Z" fill="#F5F6F7"/>
<path opacity="0.95" d="M45.1546 39.4333H26.7283C26.1233 39.4333 25.6328 39.9238 25.6328 40.5288V41.1553C25.6328 41.7604 26.1233 42.2508 26.7283 42.2508H45.1546C45.7597 42.2508 46.2501 41.7604 46.2501 41.1553V40.5288C46.2501 39.9238 45.7597 39.4333 45.1546 39.4333Z" fill="#F5F6F7"/>
<path d="M50.7006 43.1318C50.9695 42.6974 51.3449 42.3389 51.7912 42.0903C52.2376 41.8417 52.74 41.7112 53.2509 41.7112C53.7618 41.7112 54.2642 41.8417 54.7105 42.0903C55.1569 42.3389 55.5323 42.6974 55.8012 43.1318L66.1717 59.9237C66.4526 60.3779 66.6071 60.899 66.6192 61.433C66.6313 61.9669 66.5006 62.4945 66.2406 62.961C65.9806 63.4276 65.6008 63.8163 65.1403 64.0869C64.6799 64.3575 64.1555 64.5003 63.6214 64.5005H42.8792C42.3452 64.5001 41.821 64.3572 41.3607 64.0865C40.9004 63.8157 40.5207 63.427 40.2609 62.9605C40.001 62.494 39.8705 61.9665 39.8826 61.4327C39.8948 60.8988 40.0492 60.3779 40.3301 59.9237L50.7017 43.133L50.7006 43.1318Z" fill="#FFCA27"/>
<path d="M53.959 46.9849L53.8596 54.3031H52.7061L52.6067 46.9849H53.959ZM53.2828 57.2463C53.0376 57.2463 52.8271 57.1585 52.6515 56.9828C52.4758 56.8071 52.388 56.5967 52.388 56.3514C52.388 56.1061 52.4758 55.8957 52.6515 55.72C52.8271 55.5444 53.0376 55.4565 53.2828 55.4565C53.5281 55.4565 53.7386 55.5444 53.9142 55.72C54.0899 55.8957 54.1777 56.1061 54.1777 56.3514C54.1777 56.5138 54.1363 56.663 54.0534 56.7989C53.9739 56.9347 53.8662 57.0441 53.7303 57.127C53.5977 57.2065 53.4486 57.2463 53.2828 57.2463Z" fill="white"/>
</svg>
