<svg width="84" height="84" viewBox="0 0 84 84" fill="none" xmlns="http://www.w3.org/2000/svg">
<g clip-path="url(#clip0_111_4778)">
<rect width="84" height="84" rx="10" fill="#899BED" fill-opacity="0.15"/>
<path d="M62.5469 25.6484C62.4872 24.3096 61.9014 23.0484 60.9169 22.1392C59.9324 21.2299 58.6287 20.7461 57.2894 20.7929H25.7969C24.4588 20.7481 23.1571 21.2329 22.1742 22.1419C21.1913 23.0509 20.6066 24.3109 20.5469 25.6484V60.9254C20.6019 62.2691 21.1875 63.5361 22.1754 64.4485C23.1632 65.361 24.4726 65.8445 25.8164 65.7929H57.2894C58.6287 65.8397 59.9324 65.3559 60.9169 64.4466C61.9014 63.5374 62.4872 62.2762 62.5469 60.9374V25.6484Z" fill="white"/>
<path d="M25.8044 23.7929C25.2616 23.7523 24.7241 23.9225 24.3037 24.2681C23.8832 24.6137 23.6121 25.1081 23.5469 25.6484V60.9254C23.6057 61.4717 23.8762 61.9732 24.3005 62.3224C24.7248 62.6715 25.269 62.8404 25.8164 62.7929H57.2894C57.8321 62.8335 58.3696 62.6633 58.7901 62.3177C59.2106 61.9721 59.4816 61.4777 59.5469 60.9374V25.6484C59.4816 25.1081 59.2106 24.6137 58.7901 24.2681C58.3696 23.9225 57.8321 23.7523 57.2894 23.7929H25.8044ZM25.8044 20.7929H57.2894C58.6287 20.7461 59.9324 21.2299 60.9169 22.1392C61.9014 23.0484 62.4872 24.3096 62.5469 25.6484V60.9374C62.4872 62.2762 61.9014 63.5374 60.9169 64.4466C59.9324 65.3559 58.6287 65.8397 57.2894 65.7929H25.8164C24.4726 65.8445 23.1632 65.361 22.1754 64.4485C21.1875 63.5361 20.6019 62.2691 20.5469 60.9254V25.6484C20.6065 24.3096 21.1923 23.0484 22.1768 22.1392C23.1614 21.2299 24.465 20.7461 25.8044 20.7929Z" fill="#6B82E9" fill-opacity="0.8"/>
<path d="M47.7676 30.5774C48.5554 30.5775 49.3158 30.8662 49.9051 31.3889C49.9339 31.4134 49.9524 31.4479 49.9568 31.4855C49.9613 31.523 49.9514 31.5609 49.9291 31.5914L49.0531 32.7809C49.0409 32.7975 49.0254 32.8114 49.0076 32.8217C48.9898 32.832 48.9701 32.8386 48.9496 32.8409H48.9286C48.8929 32.8409 48.8583 32.8282 48.8311 32.8049C48.5709 32.543 48.2206 32.3901 47.8516 32.3774C46.8556 32.3774 46.2121 33.1784 46.2121 34.4174C46.2121 35.6174 46.8511 36.4334 47.8021 36.4334C48.2728 36.4086 48.7205 36.2221 49.0696 35.9054C49.0966 35.8831 49.1306 35.8709 49.1656 35.8709H49.1911C49.2124 35.8745 49.2327 35.8827 49.2506 35.8949C49.2685 35.907 49.2835 35.9229 49.2946 35.9414L50.0206 37.1564C50.0386 37.1863 50.0456 37.2216 50.0404 37.2561C50.0352 37.2905 50.0181 37.3222 49.9921 37.3454C49.3285 37.9206 48.4793 38.2365 47.6011 38.2349C47.108 38.2463 46.618 38.1532 46.1633 37.962C45.7086 37.7707 45.2994 37.4855 44.9626 37.1251C44.6258 36.7646 44.369 36.3371 44.209 35.8705C44.049 35.4039 43.9894 34.9087 44.0341 34.4174C44.0164 33.8936 44.1069 33.3717 44.2999 32.8845C44.493 32.3972 44.7844 31.955 45.1561 31.5854C45.863 30.9235 46.7993 30.562 47.7676 30.5774ZM39.7186 38.1644C39.2411 38.1609 38.7694 38.0592 38.3329 37.8654C37.8964 37.6717 37.5045 37.3902 37.1815 37.0384C36.8586 36.6866 36.6115 36.2721 36.4558 35.8206C36.3 35.3692 36.2388 34.8905 36.2761 34.4144C36.245 33.9432 36.311 33.4707 36.4699 33.026C36.6288 32.5813 36.8773 32.174 37.2 31.8293C37.5227 31.4846 37.9128 31.2098 38.346 31.0219C38.7792 30.834 39.2464 30.7371 39.7186 30.7371C40.1908 30.7371 40.658 30.834 41.0913 31.0219C41.5245 31.2098 41.9145 31.4846 42.2373 31.8293C42.56 32.174 42.8085 32.5813 42.9674 33.026C43.1263 33.4707 43.1923 33.9432 43.1611 34.4144C43.1984 34.8905 43.1373 35.3692 42.9815 35.8206C42.8257 36.2721 42.5787 36.6866 42.2557 37.0384C41.9328 37.3902 41.5409 37.6717 41.1044 37.8654C40.6679 38.0592 40.1962 38.1609 39.7186 38.1644ZM39.7186 32.3054C38.8321 32.3054 38.3041 33.0959 38.3041 34.4204C38.3041 35.7449 38.8336 36.5114 39.7186 36.5114C40.6036 36.5114 41.1331 35.7299 41.1331 34.4204C41.1331 33.1109 40.6036 32.3054 39.7186 32.3054ZM53.0131 27.7739C53.0529 27.7739 53.0911 27.7897 53.1192 27.8179C53.1473 27.846 53.1631 27.8841 53.1631 27.9239V33.5684L55.3786 30.8099C55.3928 30.7925 55.4106 30.7785 55.4308 30.7689C55.4511 30.7593 55.4732 30.7543 55.4956 30.7544H57.4981C57.5242 30.7544 57.5497 30.7612 57.5724 30.7741C57.595 30.787 57.6139 30.8055 57.6271 30.8279H57.6601L57.6376 30.8534L57.6481 30.8954C57.65 30.9337 57.6371 30.9713 57.6121 31.0004L55.2526 33.7829L57.8461 37.8329C57.8605 37.8551 57.8687 37.8806 57.87 37.9069C57.8713 37.9333 57.8657 37.9595 57.8536 37.9829H57.8446L57.8146 38.0219C57.7875 38.0452 57.7529 38.0579 57.7171 38.0579H55.7296C55.7036 38.0579 55.678 38.0511 55.6554 38.0383C55.6328 38.0254 55.6139 38.0068 55.6006 37.9844L54.0016 35.2634L53.1616 36.2174V37.9139C53.1616 37.9537 53.1458 37.9919 53.1177 38.02C53.0896 38.0481 53.0514 38.0639 53.0116 38.0639H51.2221C51.1824 38.0639 51.1442 38.0481 51.1161 38.02C51.0879 37.9919 51.0721 37.9537 51.0721 37.9139V27.9239C51.0721 27.8841 51.0879 27.846 51.1161 27.8179C51.1442 27.7897 51.1824 27.7739 51.2221 27.7739H53.0131ZM28.3021 28.4999C28.333 28.4999 28.363 28.5095 28.3883 28.5272C28.4135 28.5449 28.4327 28.5699 28.4431 28.5989L30.0196 32.9294C30.1591 33.3314 30.2896 33.7574 30.4141 34.1669L30.4756 34.3709C30.5251 34.2119 30.5731 34.0544 30.6256 33.8984C30.7231 33.5774 30.8221 33.2459 30.9256 32.9309L32.4661 28.6004C32.4764 28.5709 32.4957 28.5454 32.5213 28.5273C32.5468 28.5093 32.5774 28.4997 32.6086 28.4999H34.6606C34.7004 28.4999 34.7386 28.5157 34.7667 28.5439C34.7948 28.572 34.8106 28.6101 34.8106 28.6499V37.9139C34.8106 37.9537 34.7948 37.9919 34.7667 38.02C34.7386 38.0481 34.7004 38.0639 34.6606 38.0639H32.9716C32.9318 38.0639 32.8937 38.0481 32.8656 38.02C32.8374 37.9919 32.8216 37.9537 32.8216 37.9139V34.0499C32.8216 33.4844 32.8786 32.7449 32.9431 32.0609L32.5381 33.2354L31.1101 37.1354C31.0997 37.1644 31.0805 37.1895 31.0553 37.2072C31.03 37.2249 31 37.2344 30.9691 37.2344H29.9041C29.8735 37.2345 29.8435 37.2252 29.8183 37.2078C29.7931 37.1904 29.7739 37.1656 29.7631 37.1369L28.3231 33.2369L27.9376 32.0999C28.0036 32.7749 28.0636 33.4934 28.0636 34.0499V37.9139C28.0636 37.9537 28.0478 37.9919 28.0197 38.02C27.9916 38.0481 27.9534 38.0639 27.9136 38.0639H26.2486C26.2089 38.0639 26.1707 38.0481 26.1426 38.02C26.1144 37.9919 26.0986 37.9537 26.0986 37.9139V28.6499C26.0986 28.6101 26.1144 28.572 26.1426 28.5439C26.1707 28.5157 26.2089 28.4999 26.2486 28.4999H28.3021Z" fill="#6B82E9"/>
<path d="M39.719 38.0893C40.185 38.083 40.6448 37.9815 41.0701 37.7908C41.4953 37.6002 41.8771 37.3246 42.1918 36.9809C42.5066 36.6372 42.7477 36.2327 42.9002 35.7923C43.0528 35.352 43.1136 34.8851 43.079 34.4203C43.1233 33.9514 43.0692 33.4784 42.9201 33.0316C42.771 32.5847 42.5303 32.174 42.2133 31.8256C41.8963 31.4772 41.51 31.1989 41.0792 31.0085C40.6484 30.818 40.1825 30.7196 39.7115 30.7196C39.2405 30.7196 38.7747 30.818 38.3439 31.0085C37.913 31.1989 37.5268 31.4772 37.2098 31.8256C36.8927 32.174 36.652 32.5847 36.5029 33.0316C36.3538 33.4784 36.2997 33.9514 36.344 34.4203C36.3093 34.8863 36.3706 35.3545 36.5241 35.7958C36.6776 36.2372 36.92 36.6424 37.2364 36.9863C37.5527 37.3302 37.9363 37.6055 38.3633 37.7953C38.7903 37.985 39.2518 38.0851 39.719 38.0893ZM39.719 32.2303C40.67 32.2303 41.2085 33.0943 41.2085 34.4203C41.2085 35.7463 40.67 36.5863 39.719 36.5863C38.768 36.5863 38.2295 35.7358 38.2295 34.4203C38.2295 33.1048 38.768 32.2303 39.719 32.2303ZM57.719 37.9138L55.0655 33.7693L57.4955 30.8998H55.4915L53.063 33.9298H53.0135V27.9238H51.2225V37.9138H53.012V36.1603L54.029 35.0098L55.7315 37.9138H57.722M34.6625 37.9138V28.6498H32.609L31.0685 32.9818C30.8675 33.5578 30.7055 34.1713 30.5045 34.7713H30.443C30.2555 34.1713 30.08 33.5563 29.879 32.9818L28.3025 28.6498H26.249V37.9138H27.914V34.0498C27.914 33.1738 27.764 31.8838 27.6755 31.0078H27.725L28.463 33.1858L29.903 37.0858H30.9665L32.393 33.1858L33.143 31.0078H33.1925C33.1055 31.8838 32.9675 33.1738 32.9675 34.0498V37.9138H34.6625ZM39.719 38.2393C39.2321 38.236 38.7511 38.1326 38.3059 37.9355C37.8606 37.7384 37.4607 37.4519 37.1308 37.0938C36.8009 36.7357 36.5482 36.3135 36.3884 35.8536C36.2285 35.3937 36.1649 34.9059 36.2015 34.4203C36.1587 33.9325 36.2179 33.4411 36.3752 32.9774C36.5326 32.5136 36.7846 32.0877 37.1154 31.7266C37.4462 31.3655 37.8485 31.0772 38.2968 30.88C38.745 30.6827 39.2293 30.5809 39.719 30.5809C40.2087 30.5809 40.6931 30.6827 41.1413 30.88C41.5895 31.0772 41.9918 31.3655 42.3226 31.7266C42.6534 32.0877 42.9055 32.5136 43.0628 32.9774C43.2201 33.4411 43.2793 33.9325 43.2365 34.4203C43.2731 34.9059 43.2095 35.3937 43.0497 35.8536C42.8898 36.3135 42.6371 36.7357 42.3072 37.0938C41.9774 37.4519 41.5774 37.7384 41.1321 37.9355C40.6869 38.1326 40.2059 38.236 39.719 38.2393ZM39.719 32.3803C38.8805 32.3803 38.3795 33.1438 38.3795 34.4203C38.3795 35.6968 38.879 36.4363 39.719 36.4363C40.559 36.4363 41.0585 35.6863 41.0585 34.4203C41.0585 33.1543 40.5575 32.3803 39.719 32.3803Z" fill="#6B82E9"/>
<path opacity="0.191" d="M36.459 48.4333H27.6585C26.8806 48.4333 26.25 49.064 26.25 49.8418C26.25 50.6197 26.8806 51.2503 27.6585 51.2503H36.459C37.2369 51.2503 37.8675 50.6197 37.8675 49.8418C37.8675 49.064 37.2369 48.4333 36.459 48.4333Z" fill="#889BED"/>
<path opacity="0.191" d="M39.7335 54.5564H27.6585C26.8806 54.5564 26.25 55.187 26.25 55.9649C26.25 56.7428 26.8806 57.3734 27.6585 57.3734H39.7335C40.5114 57.3734 41.142 56.7428 41.142 55.9649C41.142 55.187 40.5114 54.5564 39.7335 54.5564Z" fill="#889BED"/>
<path opacity="0.191" d="M45.459 42.4333H27.6585C26.8806 42.4333 26.25 43.064 26.25 43.8419C26.25 44.6197 26.8806 45.2504 27.6585 45.2504H45.459C46.2369 45.2504 46.8675 44.6197 46.8675 43.8419C46.8675 43.064 46.2369 42.4333 45.459 42.4333Z" fill="#889BED"/>
<path d="M62.4641 38.3398L68.5301 44.3908C68.562 44.4227 68.5873 44.4606 68.6046 44.5023C68.6219 44.544 68.6308 44.5887 68.6308 44.6338C68.6308 44.679 68.6219 44.7237 68.6046 44.7654C68.5873 44.8071 68.562 44.8449 68.5301 44.8768L56.7581 56.6429C55.7054 57.5894 54.4708 58.3114 53.1297 58.7648C51.7886 59.2182 50.3692 59.3934 48.9581 59.2799C48.8216 59.2799 47.8961 59.2918 47.5871 58.9798C47.3636 58.7638 47.3681 58.4023 47.2766 57.5938C47.1575 56.1726 47.3485 54.7425 47.8361 53.4023C48.3238 52.0621 49.0965 50.8437 50.1011 49.8313L61.9826 38.3413C62.0466 38.278 62.1329 38.2424 62.223 38.2421C62.3131 38.2418 62.3996 38.2769 62.4641 38.3398ZM70.9901 34.7908L71.7281 35.5558C72.1995 35.8977 72.586 36.3433 72.8578 36.8583C73.1295 37.3732 73.2793 37.9438 73.2956 38.5258C73.3691 40.2433 71.8496 41.5843 70.8956 42.5278L70.2581 43.1653C70.2262 43.1973 70.1883 43.2226 70.1466 43.2399C70.1049 43.2572 70.0602 43.2661 70.0151 43.2661C69.9699 43.2661 69.9252 43.2572 69.8835 43.2399C69.8418 43.2226 69.804 43.1973 69.7721 43.1653L63.6581 37.0543C63.6261 37.0224 63.6008 36.9846 63.5835 36.9429C63.5662 36.9012 63.5573 36.8565 63.5573 36.8113C63.5573 36.7662 63.5662 36.7215 63.5835 36.6798C63.6008 36.6381 63.6261 36.6002 63.6581 36.5683L64.2926 35.9338L64.8626 35.3833C65.7117 34.3392 66.9341 33.6667 68.2706 33.5083C69.4391 33.4738 69.8756 33.6463 70.9901 34.7908Z" fill="#FFB82C"/>
</g>
<defs>
<clipPath id="clip0_111_4778">
<rect width="84" height="84" rx="10" fill="white"/>
</clipPath>
</defs>
</svg>
