<svg width="45" height="44" viewBox="0 0 45 44" fill="none" xmlns="http://www.w3.org/2000/svg">
<g clip-path="url(#clip0_111_4966)">
<path d="M13.901 32.1663C13.7219 32.1756 13.5432 32.1426 13.3793 32.0698C13.2155 31.9969 13.0712 31.8864 12.9581 31.7472C12.7927 31.5866 12.6683 31.3885 12.5954 31.1697C12.5224 30.9509 12.5031 30.7178 12.5391 30.4901L15.5772 16.3472C15.6302 16.0893 15.7577 15.8525 15.9439 15.6663C16.1301 15.4801 16.3669 15.3526 16.6248 15.2996L31.1867 11.9472C31.4143 11.8863 31.6547 11.8935 31.8782 11.968C32.1017 12.0425 32.2984 12.181 32.4439 12.3663C32.5954 12.5339 32.7034 12.7363 32.7582 12.9555C32.813 13.1748 32.813 13.4041 32.7581 13.6234L29.4058 27.7663C29.3527 28.0242 29.2252 28.2609 29.039 28.4471C28.8528 28.6334 28.6161 28.7609 28.3581 28.8139L14.1105 32.1663H13.901ZM18.0915 17.8139L15.682 28.9186L26.9962 26.2996L29.6153 15.1948L18.0915 17.8139Z" fill="#FF6666"/>
<path d="M24.4822 25.5663C24.3031 25.5756 24.1244 25.5426 23.9605 25.4698C23.7967 25.3969 23.6523 25.2864 23.5393 25.1472L19.2441 20.9567C18.9919 20.6904 18.8535 20.3362 18.8585 19.9694C18.8635 19.6027 19.0114 19.2523 19.2708 18.993C19.5302 18.7336 19.8805 18.5857 20.2473 18.5807C20.614 18.5757 20.9682 18.714 21.2346 18.9663L25.5298 23.1567C25.7827 23.4264 25.9234 23.7823 25.9234 24.152C25.9234 24.5217 25.7827 24.8775 25.5298 25.1472C25.2388 25.4026 24.869 25.5505 24.4822 25.5663Z" fill="#FF6666"/>
<path d="M22.7012 44C18.35 44 14.0965 42.7097 10.4786 40.2923C6.86075 37.8749 4.04096 34.439 2.37583 30.419C0.710704 26.3991 0.275031 21.9756 1.12391 17.708C1.97278 13.4404 4.06808 9.52042 7.14483 6.44366C10.2216 3.36691 14.1416 1.27161 18.4092 0.422734C22.6768 -0.426141 27.1002 0.00953217 31.1202 1.67466C35.1402 3.33979 38.5761 6.15958 40.9935 9.77746C43.4109 13.3953 44.7012 17.6488 44.7012 22C44.7012 27.8348 42.3833 33.4306 38.2575 37.5564C34.1317 41.6822 28.5359 44 22.7012 44ZM22.7012 2.72382C18.8887 2.72382 15.1619 3.85435 11.9919 5.97244C8.82195 8.09054 6.35127 11.1011 4.8923 14.6233C3.43333 18.1456 3.0516 22.0214 3.79538 25.7606C4.53915 29.4998 6.37503 32.9345 9.07086 35.6303C11.7667 38.3262 15.2014 40.162 18.9406 40.9058C22.6798 41.6496 26.5556 41.2679 30.0779 39.8089C33.6001 38.3499 36.6106 35.8792 38.7287 32.7093C40.8468 29.5393 41.9774 25.8125 41.9774 22C41.9553 16.8944 39.9174 12.0043 36.3071 8.39405C32.6969 4.78383 27.8068 2.74587 22.7012 2.72382Z" fill="#FF6666"/>
</g>
<defs>
<clipPath id="clip0_111_4966">
<rect width="44" height="44" fill="white" transform="translate(0.701172)"/>
</clipPath>
</defs>
</svg>
