<svg width="84" height="84" viewBox="0 0 84 84" fill="none" xmlns="http://www.w3.org/2000/svg">
<g clip-path="url(#clip0_111_4766)">
<rect width="84" height="84" rx="10" fill="#7BE4E1" fill-opacity="0.15"/>
<path opacity="0.5" d="M25.2142 19.4998H53.9924C54.8671 19.5062 55.7319 19.6848 56.5375 20.0255C57.3432 20.3661 58.0738 20.8621 58.6878 21.4852C59.3017 22.1082 59.7869 22.8461 60.1157 23.6566C60.4444 24.4672 60.6103 25.3346 60.6039 26.2093V57.7909C60.6163 59.5571 59.9268 61.256 58.687 62.5139C57.4472 63.7719 55.7586 64.486 53.9924 64.4993H25.2142C23.4479 64.4863 21.7591 63.7723 20.5192 62.5143C19.2794 61.2562 18.59 59.5572 18.6027 57.7909V26.2093C18.5903 24.4435 19.2795 22.745 20.5188 21.4871C21.7581 20.2292 23.4461 19.5148 25.2119 19.5009L25.2142 19.4998Z" fill="#4EDAD6"/>
<path opacity="0.95" d="M54.1033 22.5015H25.1035C23.1705 22.5015 21.6035 24.0685 21.6035 26.0015V58.002C21.6035 59.935 23.1705 61.502 25.1035 61.502H54.1033C56.0363 61.502 57.6033 59.935 57.6033 58.002V26.0015C57.6033 24.0685 56.0363 22.5015 54.1033 22.5015Z" fill="white"/>
<path opacity="0.7" d="M26.9852 43.1901H27.1637C28.2651 43.1142 29.2462 42.1751 30.0804 40.3924C30.8366 38.6374 31.3969 36.8044 31.7511 34.9266C32.0853 33.2153 32.505 31.5219 33.0087 29.8527C33.7052 27.7107 34.3107 27.0259 34.6981 26.8276C34.8731 26.7377 35.1554 26.6596 35.6104 26.9991C36.1996 27.4377 37.1189 28.6487 38.1514 31.9224C38.6863 33.6739 39.1317 35.4515 39.4861 37.2482C39.5176 37.4372 39.5607 37.6251 39.6144 37.8082C39.6313 37.9015 39.6689 37.9898 39.7245 38.0666C39.7801 38.1433 39.8521 38.2067 39.9354 38.2519C40.0187 38.2971 40.1111 38.3231 40.2058 38.3279C40.3005 38.3327 40.395 38.3162 40.4824 38.2796C40.6591 38.1676 40.7924 37.9988 40.8605 37.801C40.9286 37.6031 40.9273 37.3881 40.8569 37.1911L40.7822 36.8306C40.4126 34.9655 39.9492 33.1202 39.3939 31.3017C38.4547 28.3244 37.4106 26.3901 36.2929 25.5571C36.0116 25.3047 35.6609 25.1428 35.2864 25.0925C34.9119 25.0421 34.5309 25.1056 34.1929 25.2747C32.1967 26.2967 31.1922 31.0369 30.4607 34.4937C29.1914 40.4846 27.8077 41.4587 27.0937 41.5065C26.7921 41.5174 26.4923 41.4548 26.2201 41.3241C25.948 41.1935 25.7117 40.9986 25.5316 40.7564C24.7048 39.5512 24.3026 38.1052 24.3882 36.6462C24.4104 36.4462 24.3531 36.2455 24.2287 36.0873C24.1044 35.9291 23.9228 35.8261 23.7232 35.8004C23.5226 35.8247 23.3396 35.9271 23.214 36.0855C23.0884 36.2438 23.0304 36.4453 23.0524 36.6462C22.9487 38.5477 23.4996 40.4274 24.6134 41.9721C24.8941 42.3378 25.2524 42.6368 25.6625 42.8474C26.0727 43.058 26.5244 43.1751 26.9852 43.1901Z" fill="#CFD7E1"/>
<path d="M53.3264 54.7285C51.2174 54.7264 49.1955 53.8876 47.7042 52.3964C46.213 50.9051 45.3742 48.8831 45.3721 46.7742V34.957C45.3742 32.8481 46.213 30.8261 47.7042 29.3348C49.1955 27.8436 51.2174 27.0048 53.3264 27.0027C55.4352 27.0052 57.4568 27.844 58.9478 29.3353C60.4388 30.8265 61.2774 32.8483 61.2796 34.957V46.7753C61.2771 48.8839 60.4384 50.9054 58.9474 52.3964C57.4564 53.8873 55.435 54.726 53.3264 54.7285Z" fill="#4CDAD6"/>
<path d="M53.3262 53.2281C55.0371 53.226 56.6773 52.5453 57.887 51.3353C59.0967 50.1254 59.7771 48.4851 59.779 46.7741V34.957C59.7771 33.246 59.0967 31.6057 57.887 30.3957C56.6773 29.1858 55.0371 28.5051 53.3262 28.503C51.615 28.5048 49.9745 29.1854 48.7645 30.3953C47.5546 31.6053 46.874 33.2458 46.8722 34.957V46.7753C46.8743 48.4862 47.555 50.1264 48.7649 51.3362C49.9749 52.5459 51.6152 53.2263 53.3262 53.2281ZM53.3262 56.2276C50.8189 56.2276 48.4144 55.2316 46.6415 53.4588C44.8686 51.6859 43.8727 49.2813 43.8727 46.7741V34.957C43.8588 33.7067 44.093 32.4662 44.5618 31.3071C45.0307 30.1481 45.7247 29.0935 46.6039 28.2045C47.4831 27.3156 48.5298 26.6098 49.6836 26.1281C50.8374 25.6465 52.0753 25.3984 53.3256 25.3984C54.5759 25.3984 55.8137 25.6465 56.9675 26.1281C58.1213 26.6098 59.1681 27.3156 60.0472 28.2045C60.9264 29.0935 61.6205 30.1481 62.0893 31.3071C62.5581 32.4662 62.7924 33.7067 62.7785 34.957V46.7753C62.7782 49.2821 61.7822 51.6862 60.0096 53.4588C58.237 55.2313 55.833 56.2273 53.3262 56.2276Z" fill="#4ADAD6"/>
<path d="M62.9467 35.8586H51.9766M62.9467 40.733H51.9766M62.9467 45.6085H51.9766" stroke="#2CC3BE" stroke-width="2" stroke-linecap="round"/>
<path d="M61.124 62.1357H46.4193C45.9116 62.1357 45.5 62.5473 45.5 63.0551V63.5801C45.5 64.0878 45.9116 64.4994 46.4193 64.4994H61.124C61.6317 64.4994 62.0433 64.0878 62.0433 63.5801V63.0551C62.0433 62.5473 61.6317 62.1357 61.124 62.1357Z" fill="#CDD6E0"/>
<path d="M60.957 62.886H46.586C46.4004 62.886 46.25 63.0364 46.25 63.222V64.0503C46.25 64.2359 46.4004 64.3863 46.586 64.3863H60.957C61.1426 64.3863 61.293 64.2359 61.293 64.0503V63.222C61.293 63.0364 61.1426 62.886 60.957 62.886Z" stroke="#CFD7E1"/>
<path d="M50.375 58.5913H57.466V62.1356H50.375V58.5913Z" fill="#CFD6E0"/>
<path d="M53.1805 60.9537C45.3545 60.9444 39.0113 54.6024 39.002 46.7741C39.002 46.1814 39.0381 45.5899 39.1116 45.0007H41.361V46.0332H41.3843C41.2829 47.6446 41.5127 49.2596 42.0596 50.7787C42.6065 52.2978 43.4588 53.6887 44.564 54.8656C45.6692 56.0426 47.0039 56.9806 48.4856 57.6218C49.9674 58.263 51.5648 58.5938 53.1793 58.5938C54.7938 58.5938 56.3912 58.263 57.873 57.6218C59.3547 56.9806 60.6893 56.0426 61.7945 54.8656C62.8998 53.6887 63.7521 52.2978 64.299 50.7787C64.8459 49.2596 65.0757 47.6446 64.9743 46.0332H64.9976V45.0007H67.247C67.3193 45.5899 67.3566 46.1814 67.3566 46.7741C67.3461 54.5989 61.0076 60.9409 53.1816 60.9537H53.1805Z" fill="#CFD7E1"/>
<path d="M67.3626 46.774H64.999V42.0479H67.3615V46.7729L67.3626 46.774ZM41.3658 46.774H39.001V42.0479H41.3646V46.7729L41.3658 46.774Z" fill="#CFD7E1"/>
<path d="M40.1781 43.6171C41.0067 43.6171 41.6784 42.9454 41.6784 42.1168C41.6784 41.2882 41.0067 40.6165 40.1781 40.6165C39.3495 40.6165 38.6777 41.2882 38.6777 42.1168C38.6777 42.9454 39.3495 43.6171 40.1781 43.6171Z" fill="#CFD7E1"/>
<path d="M66.1761 43.6171C67.0047 43.6171 67.6765 42.9454 67.6765 42.1168C67.6765 41.2882 67.0047 40.6165 66.1761 40.6165C65.3475 40.6165 64.6758 41.2882 64.6758 42.1168C64.6758 42.9454 65.3475 43.6171 66.1761 43.6171Z" fill="#CFD7E1"/>
</g>
<defs>
<clipPath id="clip0_111_4766">
<rect width="84" height="84" rx="10" fill="white"/>
</clipPath>
</defs>
</svg>
