<svg width="84" height="84" viewBox="0 0 84 84" fill="none" xmlns="http://www.w3.org/2000/svg">
<g clip-path="url(#clip0_111_4760)">
<rect width="84" height="84" rx="10" fill="#F99094" fill-opacity="0.15"/>
<g opacity="0.9">
<path d="M27.8681 18.6362H56.6463C58.3995 18.6362 60.0808 19.3327 61.3205 20.5724C62.5602 21.812 63.2566 23.4934 63.2566 25.2466V56.3569C63.2566 58.1101 62.5602 59.7914 61.3205 61.0311C60.0808 62.2708 58.3995 62.9672 56.6463 62.9672H27.8681C26.115 62.9672 24.4336 62.2708 23.1939 61.0311C21.9543 59.7914 21.2578 58.1101 21.2578 56.3569V25.2466C21.2578 23.4936 21.9541 21.8124 23.1935 20.5728C24.4329 19.3331 26.1152 18.6365 27.8681 18.6362Z" fill="#F98F93"/>
<path d="M26.8545 62.9648C25.3691 62.9648 23.9446 62.3747 22.8943 61.3244C21.844 60.2741 21.2539 58.8496 21.2539 57.3642C21.2539 55.8788 21.844 54.4543 22.8943 53.404C23.9446 52.3537 25.3691 51.7636 26.8545 51.7636H57.651C57.7846 51.761 57.9182 51.7661 58.0512 51.7788H58.295C59.6078 51.7763 60.8664 51.2543 61.7955 50.3267C62.7246 49.3991 63.2487 48.1415 63.2533 46.8286V48.9683C63.2535 49.7633 63.0841 50.5491 62.7563 51.2734C62.4286 51.9977 61.9501 52.6437 61.3528 53.1683C62.2052 53.9208 62.8083 54.9149 63.0821 56.0185C63.3558 57.122 63.2873 58.2827 62.8855 59.3464C62.4837 60.41 61.7677 61.3262 60.8327 61.9732C59.8977 62.6201 58.788 62.9672 57.651 62.9683L26.8545 62.9648Z" fill="#E16364"/>
<path d="M60.2238 60.6316H27.4591C26.655 60.6309 25.884 60.3113 25.3153 59.7428C24.7466 59.1744 24.4267 58.4035 24.4258 57.5994C24.4264 56.7951 24.7462 56.0239 25.3149 55.4552C25.8836 54.8865 26.6548 54.5667 27.4591 54.5661H57.6571C59.112 54.5718 60.5115 54.0087 61.5569 52.9969C62.6023 51.985 63.2108 50.6047 63.2524 49.1504V57.3661H63.2431C63.2513 57.4442 63.2513 57.5341 63.2513 57.5994C63.2497 58.4023 62.9304 59.1719 62.3631 59.7401C61.7958 60.3083 61.0267 60.6288 60.2238 60.6316Z" fill="#C64243"/>
<path d="M58.5892 59.235H26.997C26.3778 59.235 25.784 58.9893 25.3458 58.5518C24.9077 58.1143 24.6611 57.5209 24.6602 56.9017C24.6611 56.2826 24.9077 55.6893 25.3459 55.252C25.7841 54.8147 26.3779 54.5692 26.997 54.5695H57.657C58.8295 54.5734 59.973 54.2058 60.9237 53.5195V56.9029C60.9235 57.2093 60.863 57.5127 60.7456 57.7957C60.6282 58.0787 60.4562 58.3359 60.2394 58.5524C60.0226 58.769 59.7653 58.9407 59.4822 59.0579C59.199 59.175 58.8956 59.2352 58.5892 59.235Z" fill="white"/>
<path d="M27.5576 18.6362H29.4254V51.8162H27.5576V18.6362Z" fill="#E77071"/>
<path d="M29.6526 64.7148C29.5362 64.5182 29.4757 64.2935 29.4776 64.065V54.5625H39.5121V64.0697C39.512 64.2949 39.4526 64.5161 39.3399 64.7111C39.2272 64.9061 39.0652 65.068 38.8701 65.1805C38.675 65.2931 38.4538 65.3523 38.2286 65.3523C38.0034 65.3522 37.7821 65.2929 37.5871 65.1803L34.4977 63.3977L31.4049 65.1827C31.1102 65.3513 30.7609 65.3969 30.4328 65.3095C30.1047 65.2221 29.8244 65.0077 29.6526 64.7148Z" fill="#FFC411"/>
<path d="M31.5818 55.4995C31.8293 55.4995 32.0667 55.5978 32.2417 55.7729C32.4168 55.9479 32.5151 56.1853 32.5151 56.4328V59.9305C32.5151 60.178 32.4168 60.4154 32.2417 60.5905C32.0667 60.7655 31.8293 60.8638 31.5818 60.8638C31.3342 60.8638 31.0968 60.7655 30.9218 60.5905C30.7468 60.4154 30.6484 60.178 30.6484 59.9305V56.4328C30.6484 56.1853 30.7468 55.9479 30.9218 55.7729C31.0968 55.5978 31.3342 55.4995 31.5818 55.4995Z" fill="white"/>
<path d="M33.3309 40.2743L37.1552 39.7937C37.2019 40.216 37.3816 40.6127 37.6674 40.9277C37.9054 41.147 38.2204 41.266 38.5447 41.2578C38.8498 41.2565 39.1481 41.168 39.4045 41.0026C39.6608 40.8372 39.8645 40.6019 39.9914 40.3245C40.3426 39.3911 40.5339 38.4041 40.5561 37.4078C40.1524 37.8395 39.6729 38.1918 39.1397 38.4473C38.6097 38.6761 38.0369 38.7887 37.4597 38.7775C36.8734 38.7886 36.2912 38.6769 35.7507 38.4494C35.2102 38.222 34.7233 37.8838 34.3214 37.4568C33.8964 37.0126 33.5642 36.4881 33.3442 35.914C33.1243 35.3398 33.021 34.7276 33.0404 34.1131C33.0302 33.2321 33.2549 32.3643 33.6914 31.599C34.1082 30.8612 34.7347 30.2639 35.4916 29.8828C36.3901 29.4662 37.374 29.2667 38.3639 29.3006C39.5186 29.2481 40.6674 29.494 41.6994 30.0146C42.5876 30.5451 43.2895 31.3379 43.7084 32.2838C44.2587 33.5797 44.5149 34.9814 44.4586 36.3882C44.6258 38.3505 44.0648 40.3058 42.8824 41.8808C42.3233 42.4703 41.6429 42.9313 40.8881 43.2319C40.1333 43.5324 39.3221 43.6654 38.5109 43.6215C37.6262 43.6547 36.743 43.5242 35.9057 43.2365C35.2935 42.999 34.7485 42.6157 34.3179 42.12C33.8663 41.5786 33.5304 40.9505 33.3309 40.2743ZM40.4161 34.0945C40.4527 33.4572 40.2505 32.8291 39.8491 32.3328C39.6806 32.1315 39.4698 31.97 39.2315 31.8599C38.9933 31.7498 38.7337 31.6937 38.4712 31.6958C38.2298 31.6919 37.9906 31.7416 37.7707 31.8413C37.5508 31.9409 37.3558 32.0881 37.1996 32.2722C36.8306 32.77 36.6544 33.3846 36.7037 34.0023C36.6606 34.6347 36.8461 35.2623 37.2264 35.7687C37.5449 36.1642 38.0279 36.3905 38.5354 36.3823C39.0522 36.3916 39.5469 36.1723 39.8852 35.7826C40.2714 35.3055 40.4616 34.6988 40.4161 34.0875V34.0945ZM46.0674 36.3963C45.8726 34.4444 46.376 32.4867 47.4884 30.871C48.0561 30.3123 48.7375 29.8823 49.4862 29.6104C50.2348 29.3384 51.0333 29.2308 51.8272 29.2948C52.6068 29.2702 53.3843 29.3873 54.1221 29.6402C54.6669 29.8362 55.1651 30.1418 55.5874 30.5397C55.9432 30.8803 56.2431 31.2746 56.4787 31.7063C56.7121 32.1566 56.8882 32.635 57.0037 33.1296C57.2639 34.1855 57.3934 35.2717 57.3899 36.3602C57.5385 38.2857 57.0931 40.2105 56.1136 41.875C55.5776 42.4996 54.8982 42.9849 54.1336 43.2892C53.369 43.5936 52.5419 43.708 51.7234 43.6226C50.7507 43.6634 49.7823 43.4727 48.8977 43.0662C48.1734 42.6896 47.5631 42.1261 47.1302 41.434C46.7428 40.7878 46.4775 40.076 46.3474 39.334C46.1532 38.3693 46.0582 37.3873 46.0639 36.4033L46.0674 36.3963ZM49.8824 36.3963C49.8019 37.6201 49.9612 38.8479 50.3514 40.0106C50.5567 40.5823 51.0934 40.9673 51.7012 40.979C52.0804 40.9848 52.4479 40.8367 52.7174 40.5707C53.0499 40.2078 53.2692 39.7563 53.3509 39.271C53.5129 38.3587 53.5813 37.4322 53.5551 36.506C53.6405 35.2513 53.4808 33.992 53.0849 32.7983C52.976 32.5162 52.7836 32.2741 52.5334 32.1042C52.2833 31.9343 51.9873 31.8447 51.6849 31.8475C51.3825 31.8425 51.0863 31.9335 50.8389 32.1075C50.5915 32.2815 50.4057 32.5295 50.3082 32.8158C49.9532 33.9786 49.8086 35.1955 49.8812 36.4092L49.8824 36.3963Z" fill="#E06364"/>
<path d="M33.3311 37.8581L37.1554 37.3763C37.2021 37.7986 37.3818 38.1953 37.6676 38.5103C37.9056 38.7308 38.2206 38.8486 38.5449 38.8404C38.8497 38.839 39.1476 38.7503 39.4036 38.5849C39.6595 38.4195 39.8628 38.1843 39.9893 37.9071C40.3416 36.9738 40.5329 35.9879 40.5551 34.9904C40.1514 35.4221 39.6708 35.7756 39.1388 36.0311C38.6088 36.26 38.0359 36.3725 37.4588 36.3613C36.8722 36.3725 36.2897 36.2606 35.749 36.0329C35.2083 35.8053 34.7212 35.4668 34.3193 35.0394C33.8945 34.5951 33.5625 34.0706 33.3428 33.4964C33.123 32.9223 33.0199 32.3102 33.0394 31.6958C33.0294 30.8152 33.2541 29.9478 33.6904 29.1828C34.1073 28.445 34.7338 27.8477 35.4906 27.4666C36.389 27.0496 37.373 26.8497 38.3629 26.8833C39.5174 26.8314 40.6657 27.0777 41.6973 27.5984C42.5858 28.1284 43.2881 28.9207 43.7074 29.8664C44.2578 31.1623 44.514 32.564 44.4576 33.9708C44.6249 35.9331 44.0638 37.8884 42.8814 39.4634C42.3225 40.0535 41.6419 40.5151 40.8869 40.816C40.1319 41.117 39.3204 41.2502 38.5088 41.2064C37.6241 41.2397 36.7409 41.1091 35.9036 40.8214C35.291 40.5841 34.7455 40.2009 34.3146 39.7049C33.8641 39.163 33.5294 38.5344 33.3311 37.8581ZM40.4163 31.6783C40.4529 31.041 40.2508 30.4129 39.8493 29.9166C39.6809 29.7153 39.47 29.5538 39.2318 29.4437C38.9935 29.3335 38.7339 29.2775 38.4714 29.2796C38.23 29.2756 37.9908 29.3253 37.7709 29.4249C37.551 29.5246 37.3559 29.6718 37.1998 29.8559C36.8311 30.3535 36.6549 30.9676 36.7039 31.5849C36.6609 32.2177 36.8464 32.8449 37.2266 33.3524C37.5451 33.7468 38.0281 33.9731 38.5356 33.9661C39.0524 33.9754 39.5471 33.7561 39.8854 33.3653C40.2716 32.8893 40.4618 32.2826 40.4163 31.6713V31.6783ZM46.0676 33.9813C45.8728 32.0294 46.3763 30.0717 47.4886 28.4559C48.0564 27.8972 48.7377 27.4673 49.4864 27.1953C50.235 26.9234 51.0335 26.8157 51.8274 26.8798C52.607 26.8552 53.3845 26.9722 54.1223 27.2251C54.6671 27.4211 55.1653 27.7268 55.5876 28.1246C55.9434 28.4653 56.2433 28.8596 56.4789 29.2913C56.7123 29.7416 56.8884 30.2199 57.0039 30.7146C57.2641 31.7704 57.3936 32.8566 57.3901 33.9451C57.5393 35.8714 57.0938 37.7972 56.1138 39.4623C55.5777 40.0866 54.8983 40.5717 54.1337 40.8759C53.369 41.1801 52.5421 41.2943 51.7236 41.2088C50.751 41.2496 49.7825 41.0588 48.8979 40.6523C48.1738 40.2761 47.5635 39.7129 47.1304 39.0213C46.7431 38.3751 46.4777 37.6633 46.3476 36.9213C46.1533 35.957 46.0583 34.9754 46.0641 33.9918L46.0676 33.9801V33.9813ZM49.8826 33.9813C49.8021 35.2051 49.9614 36.4329 50.3516 37.5956C50.5569 38.1673 51.0936 38.5523 51.7014 38.5639C52.0806 38.5698 52.4481 38.4216 52.7176 38.1556C53.0501 37.7928 53.2694 37.3413 53.3511 36.8559C53.5132 35.9436 53.5816 35.0172 53.5553 34.0909C53.6407 32.8363 53.481 31.5769 53.0851 30.3833C52.9762 30.1012 52.7838 29.859 52.5337 29.6892C52.2835 29.5193 51.9875 29.4297 51.6851 29.4324C51.3827 29.4274 51.0865 29.5185 50.8391 29.6925C50.5917 29.8665 50.4059 30.1145 50.3084 30.4008C49.9534 31.5636 49.8088 32.7805 49.8814 33.9941L49.8826 33.9813Z" fill="white"/>
</g>
</g>
<defs>
<clipPath id="clip0_111_4760">
<rect width="84" height="84" rx="10" fill="white"/>
</clipPath>
</defs>
</svg>
