<svg width="46" height="72" viewBox="0 0 46 72" fill="none" xmlns="http://www.w3.org/2000/svg">
<path d="M41 72C21.1177 72 5 55.8823 5 36C5 16.1177 21.1177 0 41 0V72Z" fill="#303030"/>
<path d="M28.6939 28.4609L20.4774 36.6774L28.6939 44.894C28.9528 45.162 29.096 45.5209 29.0928 45.8935C29.0895 46.2661 28.9401 46.6226 28.6766 46.886C28.4131 47.1495 28.0567 47.299 27.6841 47.3022C27.3115 47.3054 26.9526 47.1622 26.6846 46.9033L17.4676 37.6864C17.3349 37.5542 17.2298 37.3969 17.1586 37.2237C17.0873 37.0505 17.0513 36.8648 17.0527 36.6774C17.0517 36.4902 17.0879 36.3046 17.1591 36.1314C17.2304 35.9583 17.3352 35.8009 17.4676 35.6685L26.6846 26.4516C26.9526 26.1927 27.3115 26.0495 27.6841 26.0527C28.0567 26.0559 28.4131 26.2054 28.6766 26.4689C28.9401 26.7323 29.0895 27.0888 29.0928 27.4613C29.096 27.8339 28.9528 28.1929 28.6939 28.4609Z" fill="white"/>
</svg>
