<svg width="40" height="46" viewBox="0 0 40 46" fill="none" xmlns="http://www.w3.org/2000/svg">
<path d="M14.6514 41.1728C15.417 42.1337 16.5412 42.7555 17.7753 42.9007C19.0093 43.046 20.2515 42.7025 21.2269 41.9465C21.5268 41.7229 21.7968 41.4629 22.0302 41.1728M5.36845 30.3403V30.0045C5.41771 29.0111 5.73611 28.0485 6.2908 27.2161C7.21409 26.2161 7.84613 24.9908 8.12062 23.6685C8.12062 22.6466 8.12062 21.6101 8.20987 20.5881C8.67105 15.6683 13.5357 12.2667 18.3408 12.2667H18.4598C23.2649 12.2667 28.1296 15.6683 28.6056 20.5881C28.6949 21.6101 28.6056 22.6466 28.68 23.6685C28.9582 24.9938 29.5896 26.223 30.5098 27.2307C31.0687 28.0557 31.3876 29.0148 31.4322 30.0045V30.3257C31.4654 31.6604 31.0057 32.9618 30.1379 33.99C28.9912 35.1923 27.4351 35.9402 25.7642 36.0923C20.8646 36.6179 15.9212 36.6179 11.0215 36.0923C9.35254 35.9337 7.79868 35.1868 6.64784 33.99C5.79345 32.961 5.33996 31.6673 5.36845 30.3403Z" stroke="#303030" stroke-width="3" stroke-linecap="round" stroke-linejoin="round"/>
<rect x="12.2676" width="27.6" height="18.4" rx="9.2" fill="#FF0404"/>
<path d="M22.8239 7.019C22.8672 6.15233 23.1706 5.485 23.7339 5.017C24.3059 4.54033 25.0556 4.302 25.9829 4.302C26.6156 4.302 27.1572 4.41467 27.6079 4.64C28.0586 4.85667 28.3966 5.15567 28.6219 5.537C28.8559 5.90967 28.9729 6.33433 28.9729 6.811C28.9729 7.357 28.8299 7.82067 28.5439 8.202C28.2666 8.57467 27.9329 8.826 27.5429 8.956V9.008C28.0456 9.164 28.4356 9.44133 28.7129 9.84C28.9989 10.2387 29.1419 10.75 29.1419 11.374C29.1419 11.894 29.0206 12.3577 28.7779 12.765C28.5439 13.1723 28.1929 13.493 27.7249 13.727C27.2656 13.9523 26.7109 14.065 26.0609 14.065C25.0816 14.065 24.2842 13.818 23.6689 13.324C23.0536 12.83 22.7286 12.102 22.6939 11.14H24.4619C24.4792 11.5647 24.6222 11.907 24.8909 12.167C25.1682 12.4183 25.5452 12.544 26.0219 12.544C26.4639 12.544 26.8019 12.4227 27.0359 12.18C27.2786 11.9287 27.3999 11.608 27.3999 11.218C27.3999 10.698 27.2352 10.3253 26.9059 10.1C26.5766 9.87467 26.0652 9.762 25.3719 9.762H24.9949V8.267H25.3719C26.6026 8.267 27.2179 7.85533 27.2179 7.032C27.2179 6.65933 27.1052 6.369 26.8799 6.161C26.6632 5.953 26.3469 5.849 25.9309 5.849C25.5236 5.849 25.2072 5.96167 24.9819 6.187C24.7652 6.40367 24.6396 6.681 24.6049 7.019H22.8239Z" fill="white"/>
</svg>
