<svg width="53" height="52" viewBox="0 0 53 52" fill="none" xmlns="http://www.w3.org/2000/svg">
<circle cx="26.5" cy="26" r="26" fill="#DEDEDE"/>
<g clip-path="url(#clip0_128_1821)">
<path d="M26.57 32.1714C24.3762 32.1704 22.2725 31.3192 20.7212 29.8048C19.1699 28.2905 18.2979 26.2369 18.2969 24.0952V18.0762C18.2969 15.9443 19.1644 13.8998 20.7086 12.3924C22.2528 10.885 24.3472 10.0381 26.531 10.0381C28.7149 10.0381 30.8092 10.885 32.3534 12.3924C33.8976 13.8998 34.7652 15.9443 34.7652 18.0762V24.0952C34.7683 26.2249 33.9084 28.2694 32.3731 29.7825C30.8377 31.2955 28.7516 32.1543 26.57 32.1714ZM26.57 11.9809C24.9358 11.9844 23.3696 12.6196 22.214 13.7477C21.0584 14.8757 20.4077 16.4047 20.4042 18V24.019C20.4042 24.8095 20.5637 25.5922 20.8735 26.3224C21.1834 27.0527 21.6376 27.7162 22.2101 28.2751C22.7827 28.8341 23.4624 29.2774 24.2105 29.5799C24.9586 29.8824 25.7603 30.0381 26.57 30.0381C27.3798 30.0381 28.1815 29.8824 28.9296 29.5799C29.6777 29.2774 30.3574 28.8341 30.93 28.2751C31.5025 27.7162 31.9567 27.0527 32.2666 26.3224C32.5764 25.5922 32.7359 24.8095 32.7359 24.019V18.0762C32.736 16.4727 32.0889 14.9338 30.9348 13.7929C29.7807 12.652 28.2125 12.001 26.57 11.9809Z" fill="#4E4E4E"/>
<path d="M26.8902 36.8189H26.5C21.1927 36.8189 16.2756 33.8475 14.4805 29.4285C14.4805 29.5047 14.5585 29.5047 14.5585 29.5808L16.1975 28.438C16.2451 28.4743 16.2839 28.5204 16.3109 28.5732C16.3379 28.6259 16.3525 28.6838 16.3536 28.7427C17.8366 32.3999 21.9732 34.9142 26.5 34.9142C28.6242 34.9673 30.7164 34.4013 32.5097 33.2885C34.3029 32.1758 35.7159 30.5667 36.5683 28.6666L38.4414 29.5047C37.4583 31.6919 35.8404 33.5502 33.7876 34.85C31.7348 36.1499 29.337 36.8344 26.8902 36.8189Z" fill="#4E4E4E"/>
<path d="M15.417 29.9619C15.9773 29.9619 16.4316 29.5185 16.4316 28.9714C16.4316 28.4244 15.9773 27.981 15.417 27.981C14.8566 27.981 14.4023 28.4244 14.4023 28.9714C14.4023 29.5185 14.8566 29.9619 15.417 29.9619Z" fill="#4E4E4E"/>
<path d="M37.583 29.9619C38.1434 29.9619 38.5976 29.5185 38.5976 28.9714C38.5976 28.4244 38.1434 27.981 37.583 27.981C37.0226 27.981 36.5684 28.4244 36.5684 28.9714C36.5684 29.5185 37.0226 29.9619 37.583 29.9619Z" fill="#4E4E4E"/>
<path d="M25.4854 35.7524H27.5146V41.2382H25.4854V35.7524Z" fill="#4E4E4E"/>
<path d="M30.0118 42H23.1435C22.8744 42 22.6164 41.8956 22.4261 41.7099C22.2358 41.5241 22.1289 41.2722 22.1289 41.0095C22.1289 40.7468 22.2358 40.4949 22.4261 40.3091C22.6164 40.1234 22.8744 40.019 23.1435 40.019H30.0118C30.2809 40.019 30.539 40.1234 30.7293 40.3091C30.9196 40.4949 31.0265 40.7468 31.0265 41.0095C31.0265 41.2722 30.9196 41.5241 30.7293 41.7099C30.539 41.8956 30.2809 42 30.0118 42Z" fill="#4E4E4E"/>
</g>
<defs>
<clipPath id="clip0_128_1821">
<path d="M10.5 10H42.5V32C42.5 37.5228 38.0228 42 32.5 42H20.5C14.9772 42 10.5 37.5228 10.5 32V10Z" fill="white"/>
</clipPath>
</defs>
</svg>
