<svg width="80" height="80" viewBox="0 0 80 80" fill="none" xmlns="http://www.w3.org/2000/svg">
<g clip-path="url(#clip0_128_5098)">
<rect width="80" height="80" rx="7" fill="#F9F9F9"/>
<path d="M56.592 22.12L56.944 20.52H62.144L62.512 22.12H56.592ZM59.52 16.968L57.76 21.08L57.728 21.496L56.176 25H54.048L59.52 13.176L64.992 25H62.864L61.344 21.592L61.296 21.128L59.52 16.968ZM66.2949 13.8H68.1989V25H66.2949V13.8Z" fill="#FF5F5F"/>
<path d="M0 7.83532C0 4.03424 3.03338 0.927777 6.83338 0.8373L42 0C56.5 4.5 50.3924 17.8034 56.5 23.5C63.2398 29.7863 75.6659 23.9053 79.6323 38.0217C79.9036 38.9871 80.2272 39.9759 80.3446 40.9718C80.9774 46.3393 80.5348 64.3439 80.2271 74.2776C80.1106 78.0385 77.0234 81 73.2608 81H7C3.13401 81 0 77.866 0 74V7.83532Z" fill="#FFCDCD"/>
<path d="M0 7C0 3.13401 3.13401 0 7 0H41.5C57.658 6.85489 46.4853 16.5867 53.0583 25.439C53.3386 25.8165 53.6867 26.1565 54.0676 26.4321C63.813 33.4838 75.6973 23.6463 79.81 39.7146C79.9401 40.2231 80 40.7649 80 41.2898V73C80 76.866 76.866 80 73 80H7C3.13401 80 0 76.866 0 73V7Z" fill="#FF5F5F"/>
<path d="M24.104 42.812H28.2L35.784 53.5H31.24L24.104 42.812ZM19.496 31.1H23.272V53.5H19.496V31.1ZM21.736 34.364V31.1H26.408C28.0293 31.1 29.4373 31.388 30.632 31.964C31.848 32.54 32.7867 33.3507 33.448 34.396C34.1093 35.42 34.44 36.636 34.44 38.044C34.44 39.452 34.1093 40.6787 33.448 41.724C32.7867 42.7693 31.848 43.58 30.632 44.156C29.4373 44.732 28.0293 45.02 26.408 45.02H21.736V41.916H26.248C27.1013 41.916 27.848 41.7667 28.488 41.468C29.1493 41.1693 29.6613 40.7427 30.024 40.188C30.3867 39.612 30.568 38.9293 30.568 38.14C30.568 37.3293 30.3867 36.6467 30.024 36.092C29.6613 35.5373 29.1493 35.1107 28.488 34.812C27.848 34.5133 27.1013 34.364 26.248 34.364H21.736ZM41.2153 47.74L41.9193 44.54H52.3193L53.0553 47.74H41.2153ZM47.0713 37.436L43.5513 45.66L43.4873 46.492L40.3833 53.5H36.1273L47.0713 29.852L58.0153 53.5H53.7593L50.7193 46.684L50.6233 45.756L47.0713 37.436Z" fill="white"/>
</g>
<defs>
<clipPath id="clip0_128_5098">
<rect width="80" height="80" rx="40" fill="white"/>
</clipPath>
</defs>
</svg>
