<svg width="72" height="72" viewBox="0 0 72 72" fill="none" xmlns="http://www.w3.org/2000/svg">
<g clip-path="url(#clip0_15_224)">
<path d="M36 72C55.8823 72 72 55.8823 72 36C72 16.1177 55.8823 0 36 0C16.1177 0 0 16.1177 0 36C0 55.8823 16.1177 72 36 72Z" fill="#F0FAFD"/>
<path opacity="0.9" d="M22.38 16.714H47.048C47.7977 16.7195 48.539 16.8726 49.2296 17.1646C49.9201 17.4566 50.5464 17.8818 51.0726 18.4158C51.5989 18.9498 52.0148 19.5823 52.2966 20.277C52.5784 20.9718 52.7206 21.7153 52.715 22.465V49.535C52.7257 51.0489 52.1347 52.505 51.072 53.5833C50.0093 54.6615 48.5619 55.2736 47.048 55.285H22.38C20.8662 55.2736 19.4189 54.6615 18.3564 53.5832C17.2939 52.5049 16.7031 51.0488 16.714 49.535V22.465C16.7034 20.9515 17.2941 19.4956 18.3563 18.4174C19.4186 17.3392 20.8655 16.7269 22.379 16.715L22.38 16.714Z" fill="#57D6F8"/>
<path d="M48.265 41.893H39.918C39.7225 41.893 39.564 42.0515 39.564 42.247V42.825C39.564 43.0205 39.7225 43.179 39.918 43.179H48.265C48.4605 43.179 48.619 43.0205 48.619 42.825V42.247C48.619 42.0515 48.4605 41.893 48.265 41.893Z" fill="white"/>
<path opacity="0.98" d="M47.141 19.285H22.284C20.6271 19.285 19.284 20.6281 19.284 22.285V49.714C19.284 51.3709 20.6271 52.714 22.284 52.714H47.141C48.7979 52.714 50.141 51.3709 50.141 49.714V22.285C50.141 20.6281 48.7979 19.285 47.141 19.285Z" fill="white"/>
<path d="M46.848 22.578H41.829C41.2767 22.578 40.829 23.0257 40.829 23.578V29.79C40.829 30.3423 41.2767 30.79 41.829 30.79H46.848C47.4003 30.79 47.848 30.3423 47.848 29.79V23.578C47.848 23.0257 47.4003 22.578 46.848 22.578Z" fill="#65D2F0"/>
<path opacity="0.95" d="M37.051 22.578H22.972C22.4197 22.578 21.972 23.0257 21.972 23.578V24.881C21.972 25.4333 22.4197 25.881 22.972 25.881H37.051C37.6033 25.881 38.051 25.4333 38.051 24.881V23.578C38.051 23.0257 37.6033 22.578 37.051 22.578Z" fill="#67D2F0"/>
<path opacity="0.95" d="M33.717 28.247H22.911C22.3924 28.247 21.972 28.6674 21.972 29.186V29.723C21.972 30.2416 22.3924 30.662 22.911 30.662H33.717C34.2356 30.662 34.656 30.2416 34.656 29.723V29.186C34.656 28.6674 34.2356 28.247 33.717 28.247Z" fill="#B3E8F7"/>
<path opacity="0.95" d="M36.133 38.943H22.91C22.3914 38.943 21.971 39.3634 21.971 39.882V40.419C21.971 40.9376 22.3914 41.358 22.91 41.358H36.133C36.6516 41.358 37.072 40.9376 37.072 40.419V39.882C37.072 39.3634 36.6516 38.943 36.133 38.943Z" fill="#F5F6F7"/>
<path opacity="0.95" d="M32.511 44.192H22.91C22.3914 44.192 21.971 44.6124 21.971 45.131V45.668C21.971 46.1866 22.3914 46.607 22.91 46.607H32.511C33.0296 46.607 33.45 46.1866 33.45 45.668V45.131C33.45 44.6124 33.0296 44.192 32.511 44.192Z" fill="#F5F6F7"/>
<path opacity="0.95" d="M38.704 33.8H22.91C22.3914 33.8 21.971 34.2204 21.971 34.739V35.276C21.971 35.7946 22.3914 36.215 22.91 36.215H38.704C39.2226 36.215 39.643 35.7946 39.643 35.276V34.739C39.643 34.2204 39.2226 33.8 38.704 33.8Z" fill="#F5F6F7"/>
<path d="M43.457 36.97C43.6875 36.5977 44.0093 36.2904 44.3919 36.0773C44.7744 35.8642 45.2051 35.7523 45.643 35.7523C46.0809 35.7523 46.5116 35.8642 46.8941 36.0773C47.2767 36.2904 47.5985 36.5977 47.829 36.97L56.718 51.363C56.9587 51.7524 57.0911 52.199 57.1015 52.6567C57.1119 53.1144 56.9999 53.5665 56.7771 53.9664C56.5542 54.3664 56.2286 54.6995 55.834 54.9315C55.4393 55.1635 54.9898 55.2859 54.532 55.286H36.753C36.2953 55.2857 35.8459 55.1632 35.4514 54.9311C35.0569 54.6991 34.7314 54.3659 34.5087 53.966C34.286 53.5661 34.1741 53.114 34.1845 52.6564C34.1949 52.1988 34.3273 51.7523 34.568 51.363L43.458 36.971L43.457 36.97Z" fill="#FFCA27"/>
<path d="M46.625 40.8182L46.5256 48.1364H45.3722L45.2727 40.8182H46.625ZM45.9489 51.0795C45.7036 51.0795 45.4931 50.9917 45.3175 50.8161C45.1418 50.6404 45.054 50.4299 45.054 50.1847C45.054 49.9394 45.1418 49.7289 45.3175 49.5533C45.4931 49.3776 45.7036 49.2898 45.9489 49.2898C46.1941 49.2898 46.4046 49.3776 46.5803 49.5533C46.7559 49.7289 46.8438 49.9394 46.8438 50.1847C46.8438 50.3471 46.8023 50.4962 46.7195 50.6321C46.6399 50.768 46.5322 50.8774 46.3963 50.9602C46.2637 51.0398 46.1146 51.0795 45.9489 51.0795Z" fill="white"/>
</g>
<defs>
<clipPath id="clip0_15_224">
<rect width="72" height="72" fill="white"/>
</clipPath>
</defs>
</svg>
