<svg width="79" height="88" viewBox="0 0 79 88" fill="none" xmlns="http://www.w3.org/2000/svg">
<path d="M12.3475 0.885834H65.941C69.2059 0.885834 72.337 2.18301 74.6456 4.49156C76.9544 6.80011 78.2513 9.93128 78.2513 13.1962V71.1328C78.2513 74.3977 76.9544 77.5288 74.6456 79.8374C72.337 82.1462 69.2059 83.4431 65.941 83.4431H12.3475C9.08262 83.4431 5.95145 82.1462 3.64289 79.8374C1.3341 77.5288 0.0371704 74.3977 0.0371704 71.1328V13.1962C0.0371704 9.93176 1.33386 6.80084 3.64217 4.49228C5.95024 2.18373 9.0831 0.886558 12.3475 0.885834Z" fill="#8A6FFD"/>
<path d="M10.4594 83.4389C7.69346 83.4389 5.04046 82.3402 3.08456 80.384C1.12842 78.4281 0.0296631 75.7751 0.0296631 73.0089C0.0296631 70.2429 1.12842 67.59 3.08456 65.6341C5.04046 63.6779 7.69346 62.5792 10.4594 62.5792H67.8116C68.0602 62.5743 68.3091 62.5837 68.5568 62.6074H69.0108C71.4557 62.6028 73.7995 61.6305 75.5297 59.9032C77.2599 58.1757 78.2361 55.8336 78.2448 53.3886V57.3733C78.245 58.8539 77.9295 60.3174 77.3193 61.6663C76.7089 63.0151 75.8177 64.2181 74.7054 65.195C76.2927 66.5964 77.4159 68.4478 77.9259 70.5029C78.4357 72.558 78.308 74.7196 77.5597 76.7003C76.8115 78.6813 75.4781 80.3874 73.737 81.5924C71.9957 82.7971 69.929 83.4435 67.8116 83.4454L10.4594 83.4389Z" fill="#9747FF"/>
<path d="M72.6023 79.0935H11.585C10.0875 79.0925 8.65173 78.4973 7.59256 77.4386C6.53363 76.3799 5.93766 74.9442 5.93597 73.4469C5.93718 71.9489 6.53266 70.5127 7.59184 69.4538C8.65101 68.3946 10.0872 67.7991 11.585 67.7979H67.8225C70.5317 67.8085 73.1381 66.76 75.0849 64.8755C77.0318 62.9913 78.1649 60.4206 78.2426 57.7124V73.0122H78.2252C78.2404 73.158 78.2404 73.3253 78.2404 73.4469C78.2375 74.942 77.6428 76.3753 76.5865 77.4335C75.53 78.4915 74.0976 79.0884 72.6023 79.0935Z" fill="#6B2DBC"/>
<path d="M69.5585 76.4929H10.7247C9.57162 76.4929 8.46562 76.0352 7.64976 75.2205C6.83366 74.4057 6.37455 73.3004 6.37286 72.1473C6.37455 70.9945 6.8339 69.8894 7.64976 69.0753C8.46586 68.2609 9.57186 67.8037 10.7247 67.8042H67.8225C70.006 67.8114 72.1355 67.1269 73.906 65.8488V72.1495C73.9057 72.7203 73.793 73.2852 73.5743 73.8123C73.3556 74.3395 73.0353 74.8182 72.6317 75.2215C72.2279 75.6249 71.7488 75.9447 71.2214 76.1629C70.6942 76.3809 70.1291 76.4931 69.5585 76.4929Z" fill="white"/>
<path d="M11.7697 0.885834H15.2482V62.6768H11.7697V0.885834Z" fill="#9747FF"/>
<path d="M15.6696 86.698C15.4529 86.3316 15.3404 85.9133 15.3438 85.4877V67.7913H34.0309V85.4964C34.0306 85.9159 33.9201 86.3277 33.7101 86.691C33.5003 87.0541 33.1986 87.3555 32.8353 87.5651C32.4721 87.7748 32.06 87.8851 31.6405 87.8851C31.2212 87.8849 30.8092 87.7746 30.4459 87.5648L24.6926 84.2449L18.9331 87.5692C18.3842 87.8832 17.7337 87.9682 17.1227 87.8055C16.5116 87.6428 15.9895 87.2433 15.6696 86.698Z" fill="#FFC411"/>
<path d="M19.2633 69.5359C19.7243 69.5359 20.1663 69.7191 20.4924 70.045C20.8182 70.3711 21.0014 70.813 21.0014 71.2741V77.7877C21.0014 78.2487 20.8182 78.6907 20.4924 79.0168C20.1663 79.3426 19.7243 79.5258 19.2633 79.5258C18.8022 79.5258 18.36 79.3426 18.0342 79.0168C17.7083 78.6907 17.5251 78.2487 17.5251 77.7877V71.2741C17.5251 70.813 17.7083 70.3711 18.0342 70.045C18.36 69.7191 18.8022 69.5359 19.2633 69.5359Z" fill="white"/>
<path d="M42.251 39.9676V33.8237H57.7382C57.9373 36.2699 57.7242 38.5738 57.0983 40.7354C56.4726 42.8972 55.4912 44.7886 54.1544 46.4097C52.8176 48.0311 51.1396 49.3111 49.12 50.2496C47.1006 51.1598 44.7826 51.6148 42.1658 51.6148C39.7482 51.6148 37.5154 51.2308 35.4675 50.463C33.4479 49.6949 31.6847 48.6143 30.177 47.2205C28.6981 45.7983 27.5462 44.106 26.7212 42.1434C25.8964 40.1525 25.4841 37.9622 25.4841 35.573C25.4841 33.1838 25.9106 31.0223 26.7639 29.0881C27.6172 27.1539 28.8118 25.5044 30.3477 24.1391C31.8838 22.7454 33.6898 21.693 35.7661 20.9819C37.8425 20.2423 40.0895 19.8725 42.5071 19.8725C44.6972 19.8725 46.6456 20.1996 48.3521 20.8539C50.0872 21.4796 51.6088 22.3471 52.9171 23.4565C54.2256 24.5371 55.3632 25.7745 56.3304 27.1682L48.7786 30.7947C48.1815 29.7138 47.3852 28.8038 46.3895 28.0642C45.394 27.3246 44.1 26.9548 42.5071 26.9548C40.9997 26.9548 39.606 27.2819 38.326 27.9363C37.0462 28.5904 36.022 29.5574 35.2542 30.8374C34.5146 32.1172 34.1448 33.6958 34.1448 35.573C34.1448 37.422 34.5003 39.0288 35.2114 40.3941C35.9225 41.7311 36.9038 42.755 38.1553 43.4659C39.4069 44.177 40.8573 44.5325 42.5071 44.5325C43.5026 44.5325 44.3843 44.4331 45.1524 44.2339C45.9202 44.0063 46.5886 43.6935 47.1575 43.2952C47.7265 42.8687 48.21 42.371 48.608 41.802C49.0347 41.2331 49.3761 40.6217 49.6322 39.9676H42.251Z" fill="#5F44CE"/>
<path d="M42.251 36.7617V30.6181H57.7382C57.9373 33.064 57.7242 35.3679 57.0983 37.5295C56.4726 39.6913 55.4912 41.5827 54.1544 43.2038C52.8176 44.8252 51.1396 46.1052 49.12 47.0437C47.1006 47.9539 44.7826 48.4089 42.1658 48.4089C39.7482 48.4089 37.5154 48.0251 35.4675 47.2571C33.4479 46.489 31.6847 45.4084 30.177 44.0146C28.6981 42.5924 27.5462 40.9001 26.7212 38.9375C25.8964 36.9466 25.4841 34.7565 25.4841 32.3671C25.4841 29.9779 25.9106 27.8164 26.7639 25.8822C27.6172 23.948 28.8118 22.2985 30.3477 20.9332C31.8838 19.5395 33.6898 18.4871 35.7661 17.776C37.8425 17.0364 40.0895 16.6668 42.5071 16.6668C44.6972 16.6668 46.6456 16.9939 48.3521 17.648C50.0872 18.2737 51.6088 19.1412 52.9171 20.2506C54.2256 21.3313 55.3632 22.5686 56.3304 23.9623L48.7786 27.5888C48.1815 26.5079 47.3852 25.5979 46.3895 24.8583C45.394 24.1187 44.1 23.7489 42.5071 23.7489C40.9997 23.7489 39.606 24.0762 38.326 24.7304C37.0462 25.3845 36.022 26.3515 35.2542 27.6315C34.5146 28.9113 34.1448 30.4899 34.1448 32.3671C34.1448 34.2161 34.5003 35.8229 35.2114 37.1882C35.9225 38.5252 36.9038 39.5491 38.1553 40.2602C39.4069 40.9711 40.8573 41.3266 42.5071 41.3266C43.5026 41.3266 44.3843 41.2272 45.1524 41.028C45.9202 40.8004 46.5886 40.4876 47.1575 40.0896C47.7265 39.6628 48.21 39.1651 48.608 38.5961C49.0347 38.0275 49.3761 37.4158 49.6322 36.7617H42.251Z" fill="white"/>
</svg>
